<?xml version="1.0" encoding="UTF-8"?>
<!DOCTYPE svg PUBLIC "-//W3C//DTD SVG 1.1//EN" "http://www.w3.org/Graphics/SVG/1.1/DTD/svg11.dtd">
<svg version="1.2" width="11.36mm" height="24.09mm" viewBox="16083 10348 1136 2409" preserveAspectRatio="xMidYMid" fill-rule="evenodd" stroke-width="28.222" stroke-linejoin="round" xmlns="http://www.w3.org/2000/svg" xmlns:ooo="http://xml.openoffice.org/svg/export" xmlns:xlink="http://www.w3.org/1999/xlink" xmlns:presentation="http://sun.com/xmlns/staroffice/presentation" xmlns:smil="http://www.w3.org/2001/SMIL20/" xmlns:anim="urn:oasis:names:tc:opendocument:xmlns:animation:1.0" xmlns:svg="urn:oasis:names:tc:opendocument:xmlns:svg-compatible:1.0" xml:space="preserve">
 <defs class="EmbeddedBulletChars">
  <g id="bullet-char-template-57356" transform="scale(0.00048828125,-0.00048828125)">
   <path d="M 580,1141 L 1163,571 580,0 -4,571 580,1141 Z"/>
  </g>
  <g id="bullet-char-template-57354" transform="scale(0.00048828125,-0.00048828125)">
   <path d="M 8,1128 L 1137,1128 1137,0 8,0 8,1128 Z"/>
  </g>
  <g id="bullet-char-template-10146" transform="scale(0.00048828125,-0.00048828125)">
   <path d="M 174,0 L 602,739 174,1481 1456,739 174,0 Z M 1358,739 L 309,1346 659,739 1358,739 Z"/>
  </g>
  <g id="bullet-char-template-10132" transform="scale(0.00048828125,-0.00048828125)">
   <path d="M 2015,739 L 1276,0 717,0 1260,543 174,543 174,936 1260,936 717,1481 1274,1481 2015,739 Z"/>
  </g>
  <g id="bullet-char-template-10007" transform="scale(0.00048828125,-0.00048828125)">
   <path d="M 0,-2 C -7,14 -16,27 -25,37 L 356,567 C 262,823 215,952 215,954 215,979 228,992 255,992 264,992 276,990 289,987 310,991 331,999 354,1012 L 381,999 492,748 772,1049 836,1024 860,1049 C 881,1039 901,1025 922,1006 886,937 835,863 770,784 769,783 710,716 594,584 L 774,223 C 774,196 753,168 711,139 L 727,119 C 717,90 699,76 672,76 641,76 570,178 457,381 L 164,-76 C 142,-110 111,-127 72,-127 30,-127 9,-110 8,-76 1,-67 -2,-52 -2,-32 -2,-23 -1,-13 0,-2 Z"/>
  </g>
  <g id="bullet-char-template-10004" transform="scale(0.00048828125,-0.00048828125)">
   <path d="M 285,-33 C 182,-33 111,30 74,156 52,228 41,333 41,471 41,549 55,616 82,672 116,743 169,778 240,778 293,778 328,747 346,684 L 369,508 C 377,444 397,411 428,410 L 1163,1116 C 1174,1127 1196,1133 1229,1133 1271,1133 1292,1118 1292,1087 L 1292,965 C 1292,929 1282,901 1262,881 L 442,47 C 390,-6 338,-33 285,-33 Z"/>
  </g>
  <g id="bullet-char-template-9679" transform="scale(0.00048828125,-0.00048828125)">
   <path d="M 813,0 C 632,0 489,54 383,161 276,268 223,411 223,592 223,773 276,916 383,1023 489,1130 632,1184 813,1184 992,1184 1136,1130 1245,1023 1353,916 1407,772 1407,592 1407,412 1353,268 1245,161 1136,54 992,0 813,0 Z"/>
  </g>
  <g id="bullet-char-template-8226" transform="scale(0.00048828125,-0.00048828125)">
   <path d="M 346,457 C 273,457 209,483 155,535 101,586 74,649 74,723 74,796 101,859 155,911 209,963 273,989 346,989 419,989 480,963 531,910 582,859 608,796 608,723 608,648 583,586 532,535 482,483 420,457 346,457 Z"/>
  </g>
  <g id="bullet-char-template-8211" transform="scale(0.00048828125,-0.00048828125)">
   <path d="M -4,459 L 1135,459 1135,606 -4,606 -4,459 Z"/>
  </g>
  <g id="bullet-char-template-61548" transform="scale(0.00048828125,-0.00048828125)">
   <path d="M 173,740 C 173,903 231,1043 346,1159 462,1274 601,1332 765,1332 928,1332 1067,1274 1183,1159 1299,1043 1357,903 1357,740 1357,577 1299,437 1183,322 1067,206 928,148 765,148 601,148 462,206 346,322 231,437 173,577 173,740 Z"/>
  </g>
 </defs>
 <g class="Page">
  <g class="com.sun.star.drawing.ClosedBezierShape">
   <g id="id3">
    <rect class="BoundingBox" stroke="none" fill="none" x="16083" y="10348" width="1136" height="2409"/>
    <path fill="rgb(169,52,72)" stroke="none" d="M 17167,12049 C 17150,12051 17143,12036 17134,12027 17129,12023 17131,12019 17134,12014 17137,12010 17140,12005 17143,12001 17148,11988 17153,11974 17171,11979 17192,11985 17200,12001 17193,12023 17190,12036 17182,12046 17167,12049 Z M 16675,12245 C 16686,12243 16698,12242 16709,12243 16731,12243 16753,12245 16774,12239 16779,12237 16785,12236 16786,12242 16788,12248 16781,12250 16777,12251 16760,12257 16743,12261 16727,12267 16660,12290 16593,12315 16524,12330 16519,12331 16514,12332 16510,12333 16502,12328 16506,12323 16510,12320 16527,12308 16543,12295 16561,12285 16597,12266 16634,12251 16675,12245 Z M 16238,12499 C 16227,12500 16226,12487 16224,12479 16206,12425 16209,12375 16251,12332 16270,12314 16285,12293 16301,12272 16305,12268 16308,12259 16314,12262 16321,12266 16315,12273 16314,12282 16279,12340 16271,12411 16252,12477 16249,12486 16248,12498 16238,12499 Z M 16597,11699 C 16560,11659 16526,11617 16502,11568 16488,11543 16468,11520 16460,11492 16459,11487 16454,11481 16460,11477 16465,11474 16469,11479 16473,11482 16511,11512 16548,11544 16578,11582 16603,11613 16624,11651 16611,11695 16608,11708 16603,11706 16597,11699 Z M 16495,11091 C 16477,11082 16486,11064 16488,11052 16494,11031 16515,11015 16528,11018 16555,11026 16568,11043 16564,11068 16562,11077 16555,11082 16548,11086 16532,11098 16512,11098 16495,11091 Z M 16685,11090 C 16682,11087 16681,11083 16678,11079 16639,11020 16609,10955 16577,10891 16569,10876 16560,10861 16552,10846 16550,10842 16547,10836 16553,10833 16559,10830 16561,10836 16564,10840 16574,10854 16585,10867 16598,10879 16657,10934 16685,11003 16695,11081 16695,11084 16695,11086 16695,11088 16693,11094 16689,11094 16685,11090 Z M 16464,10426 C 16461,10436 16443,10440 16426,10434 16412,10429 16407,10415 16412,10400 16421,10375 16437,10367 16462,10374 16475,10378 16476,10392 16464,10426 Z M 16765,10574 C 16734,10564 16728,10546 16748,10520 16767,10496 16776,10493 16792,10505 16811,10521 16816,10556 16802,10573 16795,10580 16788,10581 16765,10574 Z M 16762,11389 C 16771,11366 16786,11346 16799,11325 16824,11283 16844,11239 16862,11194 16864,11190 16866,11185 16868,11181 16869,11179 16872,11177 16874,11177 16878,11178 16878,11181 16877,11184 16872,11227 16872,11271 16866,11307 16850,11361 16812,11382 16773,11403 16769,11405 16764,11406 16761,11401 16758,11397 16760,11393 16762,11389 Z M 16817,11848 C 16832,11840 16848,11837 16863,11848 16870,11853 16874,11859 16870,11868 16866,11875 16866,11883 16866,11891 16865,11909 16845,11921 16830,11916 16820,11911 16810,11907 16801,11902 16795,11898 16790,11893 16792,11886 16795,11870 16801,11856 16817,11848 Z M 17177,11958 C 17156,11953 17133,11964 17125,11983 17119,11999 17107,12006 17091,12010 17035,12022 16979,12033 16924,12046 16875,12057 16825,12066 16780,12090 16703,12131 16634,12183 16569,12241 16566,12244 16562,12250 16557,12246 16553,12242 16557,12238 16559,12234 16579,12198 16597,12160 16622,12126 16639,12104 16658,12083 16675,12061 16706,12019 16739,11977 16781,11945 16790,11939 16797,11936 16808,11938 16856,11950 16890,11926 16897,11877 16897,11876 16897,11874 16898,11872 16911,11836 16897,11827 16862,11821 16857,11820 16852,11819 16847,11819 16816,11817 16796,11838 16776,11857 16763,11870 16771,11886 16774,11900 16778,11919 16770,11932 16757,11943 16701,11990 16660,12050 16616,12107 16586,12148 16558,12191 16535,12236 16528,12251 16518,12263 16508,12275 16455,12338 16397,12398 16338,12455 16332,12461 16327,12468 16318,12468 16317,12460 16322,12457 16325,12452 16387,12370 16440,12283 16474,12186 16487,12149 16496,12110 16515,12075 16562,11986 16585,11888 16623,11796 16632,11775 16633,11751 16647,11732 16677,11691 16695,11645 16705,11595 16713,11558 16721,11521 16725,11483 16725,11477 16725,11470 16732,11467 16744,11461 16751,11450 16757,11439 16762,11429 16770,11423 16781,11418 16807,11406 16832,11393 16851,11371 16877,11342 16886,11304 16888,11266 16893,11205 16895,11143 16910,11083 16912,11076 16914,11067 16904,11065 16895,11062 16890,11069 16887,11076 16882,11089 16877,11101 16873,11114 16859,11165 16838,11213 16814,11260 16789,11310 16745,11350 16739,11410 16738,11413 16737,11418 16732,11417 16727,11417 16727,11411 16727,11407 16726,11398 16727,11388 16727,11378 16720,11305 16722,11232 16721,11158 16721,11114 16722,11068 16732,11024 16748,10950 16768,10876 16775,10799 16780,10746 16788,10694 16784,10641 16782,10619 16788,10604 16808,10593 16818,10588 16827,10580 16829,10567 16838,10527 16813,10483 16775,10467 16761,10462 16750,10464 16741,10477 16733,10489 16726,10501 16715,10511 16711,10515 16709,10521 16709,10526 16714,10556 16719,10586 16750,10601 16757,10604 16764,10608 16764,10616 16766,10646 16772,10675 16768,10705 16760,10772 16757,10840 16743,10906 16737,10937 16727,10966 16716,10996 16710,10992 16710,10988 16709,10985 16703,10927 16696,10868 16685,10809 16670,10729 16636,10658 16590,10591 16557,10544 16527,10496 16496,10448 16489,10437 16486,10425 16491,10412 16503,10382 16483,10351 16451,10348 16422,10346 16410,10355 16395,10385 16383,10409 16395,10428 16408,10445 16420,10461 16439,10460 16456,10453 16469,10447 16479,10451 16484,10463 16495,10484 16510,10501 16524,10519 16546,10549 16560,10583 16582,10612 16615,10655 16639,10703 16656,10755 16668,10790 16674,10829 16680,10866 16687,10902 16686,10939 16696,10975 16696,10978 16697,10982 16694,10984 16689,10986 16687,10982 16685,10979 16682,10973 16680,10967 16677,10961 16666,10937 16653,10914 16635,10895 16604,10860 16572,10824 16539,10789 16532,10782 16525,10766 16512,10775 16500,10783 16509,10796 16515,10806 16551,10872 16586,10939 16619,11007 16639,11047 16667,11083 16684,11124 16695,11149 16708,11174 16705,11200 16698,11265 16710,11330 16708,11395 16707,11427 16708,11459 16705,11491 16699,11560 16685,11627 16653,11690 16650,11696 16647,11708 16639,11705 16631,11703 16636,11692 16636,11685 16641,11624 16637,11565 16614,11507 16586,11437 16564,11365 16548,11291 16540,11253 16538,11214 16530,11176 16524,11145 16524,11119 16559,11101 16589,11086 16595,11047 16577,11020 16562,10999 16516,10992 16493,11006 16465,11022 16459,11065 16465,11088 16468,11100 16476,11108 16488,11109 16501,11111 16505,11120 16506,11132 16507,11148 16506,11164 16510,11179 16524,11246 16527,11315 16552,11379 16563,11406 16567,11436 16578,11463 16594,11504 16613,11545 16619,11590 16620,11595 16623,11601 16616,11603 16611,11604 16610,11598 16608,11595 16589,11567 16567,11542 16542,11520 16508,11490 16468,11466 16448,11423 16446,11418 16442,11413 16437,11416 16430,11418 16425,11424 16425,11431 16425,11438 16427,11445 16428,11452 16442,11513 16479,11562 16511,11614 16533,11649 16560,11680 16585,11713 16592,11721 16595,11730 16592,11741 16586,11761 16581,11781 16575,11801 16537,11932 16482,12056 16437,12185 16404,12278 16356,12363 16294,12441 16291,12444 16290,12451 16283,12448 16279,12446 16281,12440 16282,12436 16290,12405 16296,12372 16307,12341 16323,12294 16344,12249 16367,12205 16372,12195 16375,12184 16378,12173 16380,12167 16377,12162 16372,12159 16366,12156 16362,12160 16358,12164 16349,12174 16348,12189 16338,12199 16305,12232 16283,12274 16250,12307 16200,12359 16181,12418 16209,12488 16223,12526 16216,12562 16192,12594 16155,12643 16130,12702 16086,12746 16084,12748 16082,12751 16084,12755 16091,12756 16095,12751 16099,12748 16130,12720 16158,12689 16184,12656 16236,12590 16286,12523 16349,12467 16369,12450 16391,12433 16406,12411 16427,12383 16457,12369 16487,12357 16561,12330 16640,12317 16713,12285 16754,12268 16800,12265 16841,12246 16849,12243 16859,12240 16856,12229 16854,12219 16843,12219 16835,12220 16816,12220 16796,12223 16777,12224 16715,12228 16651,12222 16593,12252 16590,12254 16585,12256 16582,12252 16578,12246 16585,12243 16588,12241 16615,12224 16637,12203 16662,12184 16715,12144 16770,12106 16834,12085 16875,12071 16917,12067 16958,12055 17003,12042 17049,12037 17095,12027 17108,12024 17117,12027 17122,12041 17126,12051 17133,12060 17144,12064 17172,12074 17206,12055 17215,12023 17224,11993 17208,11965 17177,11958 Z"/>
   </g>
  </g>
 </g>
</svg>