<?xml version="1.0" encoding="UTF-8"?>
<!DOCTYPE svg PUBLIC "-//W3C//DTD SVG 1.1//EN" "http://www.w3.org/Graphics/SVG/1.1/DTD/svg11.dtd">
<svg version="1.2" width="48.41mm" height="36.41mm" viewBox="29651 14944 4841 3641" preserveAspectRatio="xMidYMid" fill-rule="evenodd" stroke-width="28.222" stroke-linejoin="round" xmlns="http://www.w3.org/2000/svg" xmlns:ooo="http://xml.openoffice.org/svg/export" xmlns:xlink="http://www.w3.org/1999/xlink" xmlns:presentation="http://sun.com/xmlns/staroffice/presentation" xmlns:smil="http://www.w3.org/2001/SMIL20/" xmlns:anim="urn:oasis:names:tc:opendocument:xmlns:animation:1.0" xmlns:svg="urn:oasis:names:tc:opendocument:xmlns:svg-compatible:1.0" xml:space="preserve">
 <defs class="EmbeddedBulletChars">
  <g id="bullet-char-template-57356" transform="scale(0.00048828125,-0.00048828125)">
   <path d="M 580,1141 L 1163,571 580,0 -4,571 580,1141 Z"/>
  </g>
  <g id="bullet-char-template-57354" transform="scale(0.00048828125,-0.00048828125)">
   <path d="M 8,1128 L 1137,1128 1137,0 8,0 8,1128 Z"/>
  </g>
  <g id="bullet-char-template-10146" transform="scale(0.00048828125,-0.00048828125)">
   <path d="M 174,0 L 602,739 174,1481 1456,739 174,0 Z M 1358,739 L 309,1346 659,739 1358,739 Z"/>
  </g>
  <g id="bullet-char-template-10132" transform="scale(0.00048828125,-0.00048828125)">
   <path d="M 2015,739 L 1276,0 717,0 1260,543 174,543 174,936 1260,936 717,1481 1274,1481 2015,739 Z"/>
  </g>
  <g id="bullet-char-template-10007" transform="scale(0.00048828125,-0.00048828125)">
   <path d="M 0,-2 C -7,14 -16,27 -25,37 L 356,567 C 262,823 215,952 215,954 215,979 228,992 255,992 264,992 276,990 289,987 310,991 331,999 354,1012 L 381,999 492,748 772,1049 836,1024 860,1049 C 881,1039 901,1025 922,1006 886,937 835,863 770,784 769,783 710,716 594,584 L 774,223 C 774,196 753,168 711,139 L 727,119 C 717,90 699,76 672,76 641,76 570,178 457,381 L 164,-76 C 142,-110 111,-127 72,-127 30,-127 9,-110 8,-76 1,-67 -2,-52 -2,-32 -2,-23 -1,-13 0,-2 Z"/>
  </g>
  <g id="bullet-char-template-10004" transform="scale(0.00048828125,-0.00048828125)">
   <path d="M 285,-33 C 182,-33 111,30 74,156 52,228 41,333 41,471 41,549 55,616 82,672 116,743 169,778 240,778 293,778 328,747 346,684 L 369,508 C 377,444 397,411 428,410 L 1163,1116 C 1174,1127 1196,1133 1229,1133 1271,1133 1292,1118 1292,1087 L 1292,965 C 1292,929 1282,901 1262,881 L 442,47 C 390,-6 338,-33 285,-33 Z"/>
  </g>
  <g id="bullet-char-template-9679" transform="scale(0.00048828125,-0.00048828125)">
   <path d="M 813,0 C 632,0 489,54 383,161 276,268 223,411 223,592 223,773 276,916 383,1023 489,1130 632,1184 813,1184 992,1184 1136,1130 1245,1023 1353,916 1407,772 1407,592 1407,412 1353,268 1245,161 1136,54 992,0 813,0 Z"/>
  </g>
  <g id="bullet-char-template-8226" transform="scale(0.00048828125,-0.00048828125)">
   <path d="M 346,457 C 273,457 209,483 155,535 101,586 74,649 74,723 74,796 101,859 155,911 209,963 273,989 346,989 419,989 480,963 531,910 582,859 608,796 608,723 608,648 583,586 532,535 482,483 420,457 346,457 Z"/>
  </g>
  <g id="bullet-char-template-8211" transform="scale(0.00048828125,-0.00048828125)">
   <path d="M -4,459 L 1135,459 1135,606 -4,606 -4,459 Z"/>
  </g>
  <g id="bullet-char-template-61548" transform="scale(0.00048828125,-0.00048828125)">
   <path d="M 173,740 C 173,903 231,1043 346,1159 462,1274 601,1332 765,1332 928,1332 1067,1274 1183,1159 1299,1043 1357,903 1357,740 1357,577 1299,437 1183,322 1067,206 928,148 765,148 601,148 462,206 346,322 231,437 173,577 173,740 Z"/>
  </g>
 </defs>
 <g class="Page">
  <g class="com.sun.star.drawing.ClosedBezierShape">
   <g id="id3">
    <rect class="BoundingBox" stroke="none" fill="none" x="29651" y="14944" width="4841" height="3641"/>
    <path fill="rgb(169,52,72)" stroke="none" d="M 34288,17520 C 34266,17544 34242,17564 34203,17558 34176,17554 34150,17547 34124,17539 34106,17533 34093,17521 34091,17500 34090,17490 34092,17482 34101,17477 34146,17449 34189,17417 34245,17415 34265,17414 34287,17411 34300,17428 34314,17448 34311,17470 34302,17492 34298,17500 34293,17509 34288,17520 Z M 34241,17202 C 34271,17173 34303,17146 34339,17126 34366,17110 34393,17114 34409,17132 34428,17154 34428,17190 34410,17217 34379,17262 34302,17283 34253,17260 34228,17248 34221,17222 34241,17202 Z M 34034,17652 C 34075,17661 34083,17701 34056,17743 34009,17815 33893,17813 33847,17740 33841,17730 33844,17725 33851,17719 33877,17700 33902,17679 33929,17663 33962,17644 33999,17644 34034,17652 Z M 33854,17676 C 33823,17696 33808,17690 33799,17655 33796,17644 33795,17633 33797,17621 33801,17591 33805,17560 33809,17529 33810,17523 33812,17516 33813,17513 33826,17494 33860,17480 33881,17485 33906,17491 33918,17510 33924,17533 33940,17592 33927,17624 33878,17659 33870,17665 33862,17671 33854,17676 Z M 33977,17452 C 33951,17411 33943,17364 33951,17316 33956,17288 34008,17266 34042,17278 34048,17280 34054,17283 34061,17286 34091,17313 34103,17349 34102,17388 34101,17412 34091,17433 34081,17453 34061,17490 34001,17490 33977,17452 Z M 30697,17205 C 30690,17207 30688,17201 30688,17196 30686,17168 30667,17149 30651,17128 30645,17119 30638,17110 30633,17099 30626,17085 30625,17074 30647,17071 30670,17067 30666,17049 30659,17034 30652,17019 30641,17005 30632,16991 30625,16982 30625,16974 30638,16971 30659,16966 30656,16951 30651,16936 30647,16926 30641,16916 30640,16904 30640,16899 30640,16894 30645,16891 30650,16889 30655,16892 30658,16896 30682,16922 30706,16947 30719,16981 30723,16990 30726,16999 30739,16999 30759,16999 30760,17013 30754,17026 30744,17045 30739,17063 30749,17084 30754,17092 30749,17101 30741,17111 30721,17132 30709,17160 30705,17192 30705,17198 30704,17204 30697,17205 Z M 30508,17199 C 30527,17237 30539,17278 30542,17320 30544,17345 30527,17355 30508,17345 30495,17336 30489,17324 30489,17309 30489,17275 30486,17241 30482,17207 30480,17197 30478,17183 30490,17179 30502,17176 30503,17191 30508,17199 Z M 30466,17140 C 30456,17151 30444,17137 30433,17134 30408,17112 30383,17091 30365,17063 30360,17056 30355,17047 30364,17039 30372,17033 30380,17036 30387,17042 30411,17063 30439,17082 30457,17109 30463,17119 30474,17131 30466,17140 Z M 30387,17260 C 30373,17279 30356,17277 30337,17267 30331,17263 30325,17259 30319,17255 30282,17236 30270,17208 30281,17169 30288,17146 30304,17138 30325,17148 30350,17160 30370,17179 30391,17197 30407,17211 30403,17239 30387,17260 Z M 30406,17289 C 30429,17300 30415,17326 30405,17341 30386,17371 30375,17377 30357,17367 30339,17356 30323,17315 30331,17297 30332,17295 30334,17292 30335,17292 30359,17290 30388,17279 30406,17289 Z M 30300,17369 C 30289,17372 30279,17369 30269,17363 30262,17358 30255,17351 30252,17343 30248,17333 30240,17322 30249,17313 30258,17306 30265,17318 30273,17321 30282,17324 30291,17329 30301,17330 30313,17331 30321,17336 30321,17349 30321,17363 30310,17366 30300,17369 Z M 30214,17242 C 30207,17230 30215,17225 30226,17227 30247,17231 30270,17231 30281,17248 30301,17261 30322,17269 30315,17296 30311,17314 30302,17321 30286,17314 30253,17299 30232,17271 30214,17242 Z M 30204,17291 C 30200,17290 30195,17287 30194,17286 30174,17274 30163,17258 30156,17239 30152,17226 30155,17215 30168,17211 30181,17207 30193,17208 30197,17224 30202,17241 30211,17255 30221,17270 30224,17276 30232,17282 30227,17289 30221,17297 30212,17294 30204,17291 Z M 30165,17136 C 30172,17117 30203,17107 30235,17114 30267,17121 30277,17137 30272,17169 30272,17170 30271,17171 30271,17171 30262,17223 30245,17230 30200,17202 30172,17184 30157,17156 30165,17136 Z M 29956,16940 C 29949,16945 29939,16948 29931,16941 29924,16933 29928,16925 29933,16918 29942,16903 29952,16889 29966,16879 29975,16872 29987,16865 29997,16876 30007,16885 29998,16895 29993,16905 29982,16918 29971,16931 29956,16940 Z M 29982,16713 C 29983,16701 29990,16697 30000,16705 30012,16714 30023,16788 30015,16801 30011,16805 30007,16804 30004,16799 29990,16772 29977,16745 29982,16713 Z M 29806,16843 C 29777,16803 29781,16781 29823,16753 29844,16738 29866,16726 29893,16730 29916,16734 29927,16756 29914,16779 29894,16791 29891,16814 29882,16836 29867,16874 29829,16876 29806,16843 Z M 29780,16897 C 29748,16906 29716,16906 29699,16895 29698,16894 29694,16890 29692,16886 29681,16863 29704,16810 29728,16802 29736,16799 29744,16796 29751,16793 29766,16788 29776,16791 29777,16807 29779,16828 29786,16845 29796,16862 29806,16880 29799,16891 29780,16897 Z M 29800,16617 C 29805,16593 29826,16580 29849,16590 29891,16608 29914,16654 29903,16698 29902,16701 29902,16703 29901,16705 29895,16715 29849,16722 29841,16711 29821,16683 29790,16659 29800,16617 Z M 29679,16799 C 29667,16795 29660,16757 29667,16745 29675,16731 29696,16726 29713,16737 29726,16746 29732,16763 29722,16778 29712,16791 29698,16805 29679,16799 Z M 29768,16619 C 29781,16624 29788,16649 29780,16667 29778,16671 29775,16675 29773,16679 29762,16691 29764,16713 29741,16716 29718,16719 29706,16710 29714,16688 29720,16672 29726,16656 29729,16639 29733,16622 29753,16613 29768,16619 Z M 30316,16757 C 30311,16755 30307,16751 30300,16747 30252,16708 30194,16676 30146,16631 30128,16613 30115,16593 30105,16570 30075,16501 30046,16431 30017,16361 29997,16316 29996,16265 29987,16217 29974,16145 29949,16076 29932,16005 29922,15965 29905,15928 29891,15889 29889,15884 29884,15875 29892,15872 29900,15868 29904,15877 29908,15883 29914,15895 29920,15907 29925,15919 29954,15992 30002,16056 30034,16128 30042,16145 30047,16163 30052,16181 30084,16315 30133,16444 30200,16564 30234,16624 30277,16680 30321,16733 30324,16737 30327,16740 30329,16743 30332,16748 30340,16753 30335,16760 30328,16768 30322,16760 30316,16757 Z M 30360,16222 C 30350,16222 30352,16213 30352,16207 30351,16036 30407,15887 30533,15768 30568,15735 30607,15704 30644,15672 30658,15660 30668,15645 30678,15630 30682,15625 30686,15615 30694,15618 30703,15621 30699,15630 30697,15638 30687,15699 30665,15756 30627,15807 30591,15868 30537,15916 30499,15977 30453,16052 30404,16126 30373,16209 30370,16216 30367,16223 30360,16222 Z M 30190,15571 C 30176,15510 30176,15448 30181,15386 30184,15342 30190,15298 30208,15257 30224,15222 30238,15186 30252,15150 30255,15143 30257,15133 30266,15136 30276,15139 30270,15148 30270,15155 30265,15247 30247,15338 30245,15429 30244,15518 30235,15608 30253,15696 30254,15699 30252,15702 30251,15711 30211,15669 30200,15620 30190,15571 Z M 34191,17198 C 34182,17208 34170,17205 34161,17200 34136,17189 34108,17183 34082,17174 34048,17162 34030,17134 34024,17101 34017,17062 34047,17037 34084,17048 34106,17054 34126,17063 34146,17076 34167,17082 34181,17100 34195,17117 34213,17138 34211,17180 34191,17198 Z M 34295,16877 C 34298,16869 34303,16861 34310,16850 34335,16818 34361,16780 34409,16769 34452,16759 34480,16790 34466,16832 34444,16904 34401,16932 34324,16927 34291,16924 34281,16908 34295,16877 Z M 34208,16924 C 34176,16924 34145,16916 34117,16902 34097,16886 34077,16871 34064,16851 34048,16826 34057,16803 34084,16796 34127,16785 34163,16792 34191,16830 34203,16847 34215,16863 34230,16877 34238,16886 34245,16898 34240,16910 34234,16924 34220,16924 34208,16924 Z M 34223,16664 C 34207,16661 34191,16657 34181,16650 34141,16622 34114,16589 34112,16543 34111,16519 34115,16496 34138,16483 34158,16472 34196,16478 34215,16494 34253,16525 34269,16606 34248,16651 34242,16662 34235,16667 34223,16664 Z M 34277,17394 C 34234,17395 34191,17395 34153,17419 34148,17422 34143,17425 34137,17420 34134,17416 34136,17412 34138,17409 34165,17369 34180,17323 34202,17281 34210,17264 34222,17262 34238,17270 34305,17306 34363,17290 34416,17241 34452,17208 34449,17160 34433,17131 34416,17099 34371,17092 34332,17108 34308,17118 34292,17138 34271,17151 34264,17155 34259,17168 34249,17160 34240,17154 34247,17143 34249,17135 34259,17083 34271,17031 34279,16978 34283,16956 34289,16947 34315,16948 34419,16951 34468,16913 34489,16823 34499,16778 34464,16740 34419,16746 34374,16753 34343,16779 34317,16814 34312,16820 34309,16830 34299,16829 34287,16827 34290,16814 34289,16806 34282,16775 34277,16743 34268,16713 34263,16696 34261,16682 34267,16665 34290,16605 34281,16550 34245,16497 34227,16470 34204,16460 34173,16459 34104,16454 34064,16514 34093,16577 34118,16631 34163,16663 34216,16685 34225,16689 34235,16692 34240,16704 34260,16750 34254,16798 34255,16846 34256,16856 34249,16860 34241,16851 34230,16840 34219,16829 34209,16818 34165,16770 34104,16757 34056,16786 34026,16804 34019,16826 34041,16853 34089,16917 34147,16963 34235,16944 34251,16941 34257,16947 34256,16964 34255,17006 34245,17048 34238,17090 34236,17098 34237,17108 34227,17111 34216,17114 34212,17103 34206,17097 34174,17060 34132,17040 34087,17027 34040,17014 33993,17056 34005,17099 34017,17140 34040,17176 34084,17191 34114,17200 34143,17211 34171,17225 34189,17233 34195,17243 34186,17261 34171,17289 34163,17319 34145,17345 34140,17352 34141,17365 34129,17364 34118,17363 34119,17350 34117,17342 34107,17307 34087,17282 34054,17264 34011,17241 33925,17266 33932,17334 33936,17370 33943,17403 33952,17437 33961,17471 33982,17488 34016,17492 34024,17493 34033,17493 34036,17502 34039,17511 34032,17518 34027,17524 34014,17541 33991,17547 33980,17566 33976,17572 33969,17580 33959,17577 33950,17574 33950,17564 33949,17556 33948,17528 33936,17505 33919,17485 33901,17465 33879,17458 33854,17466 33827,17475 33801,17486 33796,17519 33791,17546 33786,17572 33781,17599 33775,17629 33775,17659 33791,17687 33800,17704 33795,17715 33780,17724 33771,17728 33762,17733 33754,17738 33672,17785 33576,17793 33489,17828 33484,17830 33477,17833 33474,17826 33470,17818 33478,17814 33484,17812 33516,17799 33548,17786 33579,17773 33594,17767 33616,17764 33608,17741 33601,17719 33581,17731 33566,17733 33559,17735 33552,17739 33545,17742 33534,17748 33521,17752 33508,17754 33501,17755 33492,17759 33488,17750 33485,17742 33492,17736 33497,17732 33518,17716 33532,17696 33543,17672 33550,17655 33562,17636 33541,17625 33519,17615 33510,17638 33503,17654 33492,17678 33478,17698 33457,17714 33428,17735 33400,17758 33371,17779 33345,17797 33319,17822 33290,17829 33223,17844 33155,17860 33086,17847 33034,17837 32984,17821 32938,17794 32891,17766 32840,17750 32784,17754 32744,17756 32705,17757 32666,17758 32659,17759 32652,17760 32648,17753 32645,17746 32648,17740 32652,17735 32655,17730 32659,17726 32663,17722 32701,17690 32725,17648 32742,17602 32762,17552 32767,17497 32789,17447 32803,17416 32809,17410 32843,17412 32904,17416 32965,17419 33027,17417 33038,17417 33053,17417 33054,17402 33055,17386 33042,17381 33029,17379 33022,17377 33013,17378 33005,17378 32985,17378 32966,17380 32946,17380 32939,17381 32930,17382 32927,17373 32924,17364 32931,17358 32938,17353 32946,17348 32955,17344 32964,17340 32982,17331 33001,17323 33019,17314 33030,17309 33038,17301 33033,17288 33028,17275 33017,17275 33006,17279 32985,17286 32963,17290 32944,17301 32938,17305 32932,17311 32926,17305 32920,17300 32925,17293 32928,17287 32933,17276 32937,17264 32926,17256 32914,17248 32910,17263 32903,17269 32897,17274 32891,17284 32883,17278 32874,17273 32880,17263 32883,17256 32900,17209 32925,17165 32951,17123 32996,17054 33039,17040 33120,17061 33157,17070 33194,17071 33232,17064 33242,17062 33252,17059 33252,17047 33252,17034 33245,17027 33233,17025 33218,17022 33204,17021 33189,17023 33179,17024 33169,17026 33160,17024 33147,17021 33128,17025 33123,17010 33117,16995 33131,16984 33140,16974 33151,16960 33164,16947 33175,16932 33182,16922 33184,16911 33174,16901 33162,16891 33153,16899 33144,16908 33137,16916 33129,16923 33121,16929 33109,16937 33098,16956 33084,16948 33067,16939 33079,16920 33080,16905 33081,16880 33093,16856 33088,16830 33086,16822 33085,16812 33074,16812 33063,16812 33062,16822 33063,16830 33069,16889 33046,16942 33034,16997 33031,17010 33023,17021 33011,17027 32971,17049 32942,17077 32922,17119 32887,17197 32836,17266 32808,17348 32791,17399 32758,17443 32744,17496 32741,17510 32745,17536 32728,17535 32714,17534 32713,17508 32710,17493 32704,17459 32699,17425 32690,17391 32687,17382 32687,17367 32673,17368 32658,17369 32661,17384 32661,17394 32661,17430 32661,17466 32661,17502 32661,17510 32665,17519 32656,17524 32647,17529 32639,17522 32632,17517 32620,17508 32609,17498 32597,17490 32588,17484 32577,17482 32570,17492 32562,17501 32568,17510 32575,17518 32587,17530 32599,17542 32611,17555 32615,17559 32618,17564 32615,17570 32611,17577 32605,17576 32599,17575 32595,17574 32592,17573 32588,17572 32579,17570 32571,17572 32566,17580 32560,17589 32565,17597 32572,17604 32583,17615 32598,17617 32612,17620 32627,17623 32642,17625 32656,17630 32685,17640 32689,17653 32667,17675 32638,17706 32611,17738 32574,17762 32548,17779 32527,17803 32507,17827 32475,17864 32436,17896 32394,17922 32359,17942 32320,17950 32280,17948 32243,17947 32207,17941 32170,17937 32097,17927 32027,17901 31955,17885 31927,17878 31900,17863 31873,17852 31867,17849 31860,17846 31862,17838 31864,17830 31872,17831 31879,17831 31884,17831 31890,17831 31896,17832 31961,17841 32019,17820 32075,17792 32087,17787 32096,17779 32103,17768 32125,17735 32151,17704 32179,17675 32195,17658 32208,17655 32230,17662 32294,17682 32358,17667 32422,17658 32433,17657 32441,17647 32439,17635 32436,17621 32425,17621 32414,17622 32397,17624 32380,17626 32362,17627 32354,17628 32345,17626 32343,17616 32341,17607 32347,17603 32354,17599 32370,17589 32386,17579 32402,17569 32411,17564 32421,17557 32417,17544 32412,17532 32400,17535 32391,17538 32357,17546 32323,17555 32289,17564 32279,17566 32269,17572 32261,17563 32252,17553 32257,17540 32263,17531 32279,17504 32285,17474 32294,17445 32317,17367 32355,17337 32436,17336 32477,17335 32515,17323 32554,17314 32565,17311 32574,17304 32572,17291 32570,17277 32559,17275 32548,17275 32537,17276 32525,17279 32514,17280 32502,17281 32487,17288 32480,17275 32472,17262 32485,17251 32493,17241 32509,17221 32528,17204 32541,17182 32546,17171 32553,17160 32542,17150 32531,17139 32522,17150 32512,17155 32500,17162 32492,17182 32478,17175 32463,17168 32476,17150 32474,17137 32473,17128 32476,17115 32464,17115 32454,17115 32455,17127 32454,17135 32436,17213 32405,17283 32337,17331 32315,17347 32295,17366 32289,17394 32274,17470 32241,17537 32201,17589 32177,17626 32161,17654 32142,17681 32069,17789 31972,17820 31867,17797 31854,17794 31832,17796 31831,17778 31830,17758 31852,17756 31867,17751 31908,17738 31939,17713 31963,17679 31968,17671 31979,17662 31970,17653 31961,17644 31952,17654 31945,17660 31908,17687 31867,17705 31823,17717 31812,17720 31799,17723 31792,17711 31785,17698 31794,17689 31802,17680 31816,17666 31832,17652 31846,17638 31854,17630 31861,17620 31852,17610 31843,17601 31833,17608 31825,17613 31804,17626 31783,17639 31765,17656 31756,17665 31744,17673 31739,17652 31737,17644 31739,17633 31728,17632 31716,17631 31714,17642 31710,17650 31706,17660 31702,17672 31698,17682 31692,17697 31680,17708 31664,17711 31621,17719 31578,17719 31539,17698 31417,17635 31292,17581 31171,17518 31086,17474 31003,17426 30924,17372 30864,17330 30809,17282 30746,17245 30738,17239 30729,17234 30728,17223 30723,17186 30724,17150 30756,17124 30771,17112 30774,17100 30767,17083 30762,17070 30761,17056 30767,17043 30786,17004 30767,16969 30756,16933 30753,16922 30742,16919 30738,16932 30730,16960 30723,16946 30712,16935 30681,16901 30660,16859 30630,16824 30625,16819 30620,16807 30611,16815 30604,16821 30611,16829 30615,16835 30622,16846 30630,16859 30627,16873 30623,16891 30624,16907 30629,16924 30633,16935 30633,16944 30617,16942 30595,16939 30595,16952 30602,16967 30607,16979 30615,16991 30622,17003 30643,17038 30643,17039 30615,17066 30604,17076 30597,17076 30593,17062 30583,17026 30558,17000 30538,16970 30504,16919 30463,16872 30445,16812 30434,16776 30420,16743 30403,16709 30397,16696 30393,16682 30390,16667 30369,16562 30355,16457 30364,16347 30370,16278 30391,16218 30419,16158 30441,16110 30473,16069 30496,16024 30523,15972 30561,15929 30597,15884 30644,15826 30690,15768 30706,15693 30719,15635 30734,15578 30746,15520 30749,15510 30749,15496 30736,15493 30721,15489 30718,15504 30717,15514 30714,15545 30698,15569 30678,15591 30650,15624 30628,15662 30593,15689 30568,15709 30542,15728 30519,15750 30444,15823 30387,15908 30359,16011 30357,16018 30358,16030 30347,16029 30337,16028 30340,16016 30339,16008 30331,15930 30319,15853 30298,15777 30282,15718 30259,15658 30264,15594 30269,15522 30262,15449 30271,15376 30277,15316 30286,15256 30290,15195 30294,15144 30300,15095 30318,15046 30326,15025 30341,15008 30348,14987 30353,14974 30365,14956 30350,14947 30331,14936 30325,14958 30316,14970 30274,15025 30254,15090 30227,15153 30180,15260 30146,15369 30156,15488 30162,15557 30170,15626 30202,15688 30245,15770 30271,15858 30294,15946 30312,16012 30310,16081 30317,16148 30325,16242 30313,16337 30322,16432 30325,16462 30327,16492 30325,16523 30322,16572 30332,16619 30352,16664 30364,16691 30375,16720 30386,16748 30388,16753 30393,16760 30386,16763 30379,16767 30376,16760 30372,16756 30366,16749 30361,16742 30355,16735 30301,16677 30255,16613 30217,16544 30155,16434 30108,16316 30079,16192 30066,16134 30040,16080 30011,16029 29990,15994 29968,15959 29953,15921 29930,15867 29890,15819 29887,15756 29887,15754 29885,15751 29884,15749 29880,15742 29878,15732 29867,15734 29856,15736 29854,15747 29855,15756 29860,15805 29859,15855 29876,15901 29908,15983 29929,16067 29952,16151 29971,16222 29972,16297 30001,16366 30022,16420 30045,16473 30064,16527 30096,16619 30161,16677 30242,16725 30285,16752 30330,16779 30366,16816 30404,16854 30437,16896 30471,16937 30505,16977 30527,17025 30553,17071 30556,17076 30561,17082 30554,17086 30549,17090 30545,17085 30541,17082 30538,17079 30535,17076 30532,17073 30454,17005 30366,16955 30268,16921 30200,16897 30130,16878 30062,16855 30040,16847 30032,16835 30032,16813 30032,16782 30032,16751 30024,16721 30016,16691 30002,16673 29985,16679 29958,16687 29964,16710 29966,16730 29968,16754 29975,16777 29986,16798 29989,16805 29993,16815 29984,16821 29977,16825 29970,16821 29963,16817 29929,16797 29929,16797 29939,16760 29940,16757 29942,16754 29941,16753 29919,16717 29926,16676 29917,16638 29909,16609 29883,16590 29855,16578 29837,16570 29818,16568 29804,16586 29793,16598 29781,16601 29765,16601 29727,16601 29714,16613 29708,16651 29705,16676 29692,16697 29672,16713 29658,16725 29652,16739 29651,16758 29650,16779 29653,16798 29663,16817 29672,16832 29676,16847 29674,16866 29671,16881 29668,16901 29688,16909 29711,16919 29735,16923 29762,16915 29788,16908 29808,16887 29836,16884 29867,16879 29891,16865 29901,16833 29907,16815 29918,16814 29932,16824 29938,16829 29943,16834 29949,16838 29962,16848 29964,16858 29950,16870 29935,16884 29925,16902 29915,16920 29908,16931 29907,16944 29916,16954 29925,16966 29937,16964 29950,16960 29960,16957 29969,16951 29975,16942 29988,16924 30005,16909 30014,16888 30018,16878 30027,16873 30038,16878 30089,16899 30146,16906 30197,16928 30271,16959 30346,16989 30416,17027 30472,17058 30527,17088 30574,17131 30579,17136 30589,17140 30583,17149 30579,17156 30571,17152 30565,17150 30546,17146 30526,17142 30507,17147 30489,17151 30481,17145 30474,17127 30456,17081 30416,17051 30376,17024 30360,17013 30346,17025 30348,17045 30350,17059 30358,17070 30366,17080 30387,17105 30410,17127 30437,17144 30455,17155 30453,17163 30435,17171 30408,17182 30384,17181 30361,17162 30346,17149 30331,17135 30310,17133 30295,17132 30282,17127 30270,17117 30265,17112 30258,17109 30251,17106 30220,17093 30191,17098 30166,17118 30141,17138 30147,17162 30161,17186 30165,17193 30163,17200 30159,17207 30138,17244 30147,17282 30188,17296 30220,17307 30239,17322 30251,17354 30262,17382 30289,17389 30317,17376 30329,17371 30338,17373 30349,17379 30375,17392 30386,17388 30402,17364 30410,17353 30417,17342 30423,17330 30431,17316 30432,17300 30421,17289 30406,17274 30404,17259 30411,17240 30414,17233 30413,17225 30413,17218 30413,17194 30433,17171 30456,17174 30479,17177 30470,17198 30472,17212 30474,17237 30474,17262 30475,17288 30475,17303 30478,17317 30484,17331 30495,17358 30517,17374 30535,17368 30563,17358 30558,17333 30554,17314 30546,17268 30537,17223 30513,17183 30509,17177 30503,17170 30508,17163 30513,17156 30522,17157 30529,17158 30555,17160 30578,17169 30601,17182 30636,17203 30664,17233 30697,17256 30755,17297 30807,17347 30867,17386 30938,17431 31008,17478 31084,17515 31131,17538 31172,17568 31218,17593 31246,17608 31270,17626 31286,17654 31301,17679 31314,17704 31326,17730 31360,17808 31385,17890 31413,17971 31422,17996 31429,18023 31422,18050 31406,18105 31387,18157 31333,18186 31324,18191 31313,18200 31322,18212 31332,18223 31341,18214 31349,18206 31374,18182 31402,18162 31421,18132 31424,18127 31428,18123 31435,18124 31442,18126 31443,18132 31444,18137 31449,18154 31447,18170 31442,18186 31435,18210 31435,18235 31436,18259 31436,18268 31437,18277 31449,18278 31459,18279 31465,18273 31468,18265 31471,18256 31472,18247 31473,18238 31474,18226 31474,18214 31476,18201 31477,18193 31477,18184 31485,18180 31496,18176 31502,18185 31508,18191 31519,18201 31529,18213 31539,18223 31548,18231 31554,18251 31569,18241 31583,18231 31571,18216 31564,18204 31562,18201 31560,18199 31559,18196 31542,18167 31526,18139 31510,18110 31506,18101 31502,18090 31510,18082 31519,18074 31527,18082 31535,18087 31579,18112 31627,18129 31676,18144 31754,18168 31820,18219 31895,18252 31901,18255 31907,18260 31912,18265 31962,18312 32022,18350 32042,18422 32044,18427 32048,18432 32051,18436 32076,18466 32097,18498 32118,18531 32130,18550 32147,18564 32165,18578 32171,18583 32179,18586 32187,18580 32195,18573 32193,18564 32189,18555 32186,18551 32183,18547 32179,18544 32153,18520 32139,18488 32125,18457 32122,18449 32119,18441 32125,18434 32132,18426 32140,18428 32148,18430 32182,18437 32215,18445 32249,18452 32259,18454 32268,18456 32278,18453 32285,18451 32291,18448 32292,18440 32293,18432 32289,18426 32282,18423 32274,18420 32266,18418 32258,18417 32225,18410 32192,18403 32159,18396 32153,18394 32145,18393 32145,18385 32146,18376 32155,18377 32161,18376 32187,18374 32213,18372 32239,18369 32254,18367 32280,18373 32278,18351 32276,18330 32251,18338 32236,18339 32185,18344 32133,18349 32082,18355 32068,18357 32058,18352 32046,18344 31991,18306 31948,18251 31889,18218 31882,18214 31870,18210 31874,18199 31878,18187 31889,18194 31898,18195 31955,18200 32011,18213 32068,18215 32077,18216 32089,18217 32091,18206 32093,18193 32081,18191 32071,18189 32050,18185 32029,18181 32009,18177 32001,18175 31990,18175 31989,18165 31988,18154 31999,18153 32007,18151 32031,18143 32057,18135 32081,18126 32090,18123 32099,18118 32097,18107 32095,18095 32083,18098 32075,18099 32066,18099 32057,18102 32048,18104 32010,18115 31972,18125 31934,18135 31925,18137 31911,18144 31905,18133 31900,18122 31914,18117 31920,18110 31933,18098 31947,18088 31956,18073 31960,18066 31963,18057 31955,18051 31947,18044 31940,18050 31934,18056 31931,18059 31928,18063 31924,18067 31864,18124 31794,18154 31712,18130 31632,18106 31554,18079 31490,18020 31437,17973 31411,17918 31396,17854 31393,17839 31401,17834 31415,17839 31420,17841 31425,17844 31430,17847 31473,17867 31515,17887 31557,17907 31565,17911 31576,17914 31582,17904 31587,17894 31578,17888 31570,17883 31556,17873 31542,17864 31525,17859 31517,17856 31509,17854 31502,17850 31493,17845 31478,17843 31481,17830 31483,17819 31498,17823 31507,17822 31519,17820 31531,17820 31544,17819 31550,17818 31557,17815 31557,17807 31558,17799 31552,17795 31546,17793 31536,17791 31527,17789 31517,17788 31499,17787 31485,17784 31485,17760 31486,17745 31475,17742 31463,17747 31438,17758 31413,17759 31388,17763 31373,17765 31363,17762 31354,17749 31332,17720 31327,17683 31307,17652 31306,17650 31306,17645 31307,17643 31312,17639 31317,17642 31321,17644 31382,17676 31449,17698 31506,17737 31520,17747 31536,17751 31551,17758 31587,17773 31627,17771 31661,17786 31703,17804 31744,17823 31785,17842 31903,17898 32025,17943 32155,17963 32183,17968 32214,17968 32239,17980 32284,18003 32329,18026 32375,18048 32445,18082 32512,18119 32573,18167 32581,18174 32593,18183 32603,18172 32614,18160 32608,18147 32599,18137 32584,18120 32567,18106 32547,18096 32522,18084 32497,18071 32472,18058 32466,18054 32455,18051 32458,18041 32461,18031 32472,18034 32480,18034 32500,18034 32520,18035 32539,18033 32555,18032 32576,18033 32579,18013 32580,17994 32560,17993 32546,17989 32530,17984 32527,17977 32543,17968 32552,17962 32557,17954 32553,17943 32548,17932 32538,17934 32529,17935 32519,17936 32510,17939 32500,17941 32489,17944 32477,17944 32466,17943 32459,17941 32450,17941 32448,17932 32445,17924 32452,17919 32457,17914 32483,17892 32508,17870 32534,17849 32551,17835 32570,17823 32591,17815 32672,17784 32756,17783 32841,17788 32846,17788 32851,17790 32855,17791 32903,17806 32939,17831 32962,17878 32996,17948 33027,18020 33084,18076 33090,18082 33094,18090 33104,18086 33113,18083 33114,18074 33114,18066 33114,18050 33109,18035 33102,18021 33092,18003 33083,17985 33079,17964 33078,17956 33073,17947 33081,17941 33089,17935 33098,17938 33107,17942 33122,17949 33138,17957 33153,17964 33161,17968 33169,17975 33178,17969 33188,17963 33187,17953 33184,17945 33180,17928 33188,17923 33203,17921 33224,17919 33245,17916 33266,17910 33312,17897 33360,17890 33408,17879 33424,17876 33440,17878 33456,17884 33479,17893 33503,17901 33528,17909 33540,17913 33556,17919 33560,17901 33564,17884 33549,17877 33534,17874 33531,17874 33528,17874 33524,17873 33518,17872 33509,17875 33508,17866 33507,17858 33517,17858 33523,17857 33574,17842 33627,17834 33675,17811 33683,17807 33692,17805 33701,17803 33739,17793 33776,17779 33807,17754 33820,17744 33830,17747 33839,17758 33862,17790 33894,17806 33931,17815 34000,17832 34078,17783 34092,17713 34102,17665 34065,17626 34011,17628 34004,17628 33995,17632 33991,17624 33987,17616 33993,17609 33998,17604 34017,17583 34031,17559 34047,17536 34058,17521 34068,17519 34083,17532 34121,17562 34163,17579 34214,17581 34276,17584 34342,17499 34328,17437 34320,17407 34307,17393 34277,17394 Z"/>
   </g>
  </g>
 </g>
</svg>