<?xml version="1.0" encoding="UTF-8"?>
<!DOCTYPE svg PUBLIC "-//W3C//DTD SVG 1.1//EN" "http://www.w3.org/Graphics/SVG/1.1/DTD/svg11.dtd">
<svg version="1.2" width="35.08mm" height="32.51mm" viewBox="21441 3353 3508 3251" preserveAspectRatio="xMidYMid" fill-rule="evenodd" stroke-width="28.222" stroke-linejoin="round" xmlns="http://www.w3.org/2000/svg" xmlns:ooo="http://xml.openoffice.org/svg/export" xmlns:xlink="http://www.w3.org/1999/xlink" xmlns:presentation="http://sun.com/xmlns/staroffice/presentation" xmlns:smil="http://www.w3.org/2001/SMIL20/" xmlns:anim="urn:oasis:names:tc:opendocument:xmlns:animation:1.0" xmlns:svg="urn:oasis:names:tc:opendocument:xmlns:svg-compatible:1.0" xml:space="preserve">
 <defs class="EmbeddedBulletChars">
  <g id="bullet-char-template-57356" transform="scale(0.00048828125,-0.00048828125)">
   <path d="M 580,1141 L 1163,571 580,0 -4,571 580,1141 Z"/>
  </g>
  <g id="bullet-char-template-57354" transform="scale(0.00048828125,-0.00048828125)">
   <path d="M 8,1128 L 1137,1128 1137,0 8,0 8,1128 Z"/>
  </g>
  <g id="bullet-char-template-10146" transform="scale(0.00048828125,-0.00048828125)">
   <path d="M 174,0 L 602,739 174,1481 1456,739 174,0 Z M 1358,739 L 309,1346 659,739 1358,739 Z"/>
  </g>
  <g id="bullet-char-template-10132" transform="scale(0.00048828125,-0.00048828125)">
   <path d="M 2015,739 L 1276,0 717,0 1260,543 174,543 174,936 1260,936 717,1481 1274,1481 2015,739 Z"/>
  </g>
  <g id="bullet-char-template-10007" transform="scale(0.00048828125,-0.00048828125)">
   <path d="M 0,-2 C -7,14 -16,27 -25,37 L 356,567 C 262,823 215,952 215,954 215,979 228,992 255,992 264,992 276,990 289,987 310,991 331,999 354,1012 L 381,999 492,748 772,1049 836,1024 860,1049 C 881,1039 901,1025 922,1006 886,937 835,863 770,784 769,783 710,716 594,584 L 774,223 C 774,196 753,168 711,139 L 727,119 C 717,90 699,76 672,76 641,76 570,178 457,381 L 164,-76 C 142,-110 111,-127 72,-127 30,-127 9,-110 8,-76 1,-67 -2,-52 -2,-32 -2,-23 -1,-13 0,-2 Z"/>
  </g>
  <g id="bullet-char-template-10004" transform="scale(0.00048828125,-0.00048828125)">
   <path d="M 285,-33 C 182,-33 111,30 74,156 52,228 41,333 41,471 41,549 55,616 82,672 116,743 169,778 240,778 293,778 328,747 346,684 L 369,508 C 377,444 397,411 428,410 L 1163,1116 C 1174,1127 1196,1133 1229,1133 1271,1133 1292,1118 1292,1087 L 1292,965 C 1292,929 1282,901 1262,881 L 442,47 C 390,-6 338,-33 285,-33 Z"/>
  </g>
  <g id="bullet-char-template-9679" transform="scale(0.00048828125,-0.00048828125)">
   <path d="M 813,0 C 632,0 489,54 383,161 276,268 223,411 223,592 223,773 276,916 383,1023 489,1130 632,1184 813,1184 992,1184 1136,1130 1245,1023 1353,916 1407,772 1407,592 1407,412 1353,268 1245,161 1136,54 992,0 813,0 Z"/>
  </g>
  <g id="bullet-char-template-8226" transform="scale(0.00048828125,-0.00048828125)">
   <path d="M 346,457 C 273,457 209,483 155,535 101,586 74,649 74,723 74,796 101,859 155,911 209,963 273,989 346,989 419,989 480,963 531,910 582,859 608,796 608,723 608,648 583,586 532,535 482,483 420,457 346,457 Z"/>
  </g>
  <g id="bullet-char-template-8211" transform="scale(0.00048828125,-0.00048828125)">
   <path d="M -4,459 L 1135,459 1135,606 -4,606 -4,459 Z"/>
  </g>
  <g id="bullet-char-template-61548" transform="scale(0.00048828125,-0.00048828125)">
   <path d="M 173,740 C 173,903 231,1043 346,1159 462,1274 601,1332 765,1332 928,1332 1067,1274 1183,1159 1299,1043 1357,903 1357,740 1357,577 1299,437 1183,322 1067,206 928,148 765,148 601,148 462,206 346,322 231,437 173,577 173,740 Z"/>
  </g>
 </defs>
 <g class="Page">
  <g class="com.sun.star.drawing.ClosedBezierShape">
   <g id="id3">
    <rect class="BoundingBox" stroke="none" fill="none" x="21441" y="3549" width="3035" height="3055"/>
    <path fill="rgb(255,255,255)" stroke="none" d="M 21578,5445 C 21683,5423 21791,5431 21895,5409 21784,5374 21681,5404 21578,5445 Z M 22651,6171 C 22648,6165 22645,6158 22642,6153 22619,6113 22607,6070 22601,6025 22595,5981 22586,5938 22579,5894 22570,5845 22547,5804 22515,5767 22515,5771 22516,5773 22517,5776 22540,5827 22556,5879 22561,5935 22569,6022 22605,6099 22651,6171 Z M 22086,3768 C 22085,3772 22084,3775 22084,3779 22076,3872 22058,3962 22027,4049 22010,4095 22020,4143 22026,4190 22025,4146 22029,4103 22043,4062 22057,4019 22070,3976 22084,3934 22103,3879 22102,3824 22086,3768 Z M 21915,5424 C 21899,5422 21621,5452 21608,5456 21713,5494 21817,5472 21915,5424 Z M 21498,4464 C 21528,4488 21548,4519 21569,4549 21583,4567 21600,4582 21620,4593 21641,4604 21662,4614 21684,4622 21713,4632 21742,4641 21770,4651 21749,4635 21726,4622 21703,4609 21663,4587 21631,4552 21597,4521 21568,4495 21535,4477 21498,4464 Z M 22010,4188 C 22010,4184 22011,4180 22010,4177 21998,4111 22009,4048 22032,3987 22058,3919 22062,3847 22071,3774 22064,3782 22062,3790 22060,3798 22048,3830 22041,3865 22026,3896 22007,3938 21995,3981 21993,4028 21992,4082 21989,4136 22010,4188 Z M 23419,6018 C 23469,6083 23523,6144 23583,6200 23626,6239 23671,6275 23724,6301 23728,6303 23733,6305 23738,6307 23732,6297 23725,6290 23719,6282 23685,6240 23647,6202 23601,6175 23571,6157 23545,6135 23519,6113 23484,6083 23452,6049 23419,6018 Z M 21897,6264 C 21943,6255 21990,6245 22031,6221 22086,6189 22146,6173 22208,6160 22249,6151 22289,6139 22328,6123 22171,6128 22030,6184 21897,6264 Z M 22495,5766 C 22499,5826 22511,5884 22518,5944 22528,6021 22565,6087 22610,6150 22616,6160 22623,6170 22636,6178 22634,6173 22633,6171 22632,6169 22586,6092 22553,6010 22545,5918 22541,5864 22522,5813 22495,5766 Z M 24110,6299 C 23993,6361 23887,6439 23796,6544 23804,6539 23808,6536 23812,6533 23875,6487 23937,6441 24006,6404 24047,6381 24078,6347 24104,6309 24107,6305 24111,6302 24110,6299 Z M 21806,4651 C 21791,4625 21772,4603 21749,4583 21721,4556 21686,4540 21658,4514 21621,4480 21578,4461 21530,4452 21525,4451 21519,4449 21514,4448 21510,4447 21505,4445 21496,4448 21556,4468 21601,4504 21642,4545 21688,4593 21749,4619 21806,4651 Z M 21932,4903 C 21955,4903 21972,4891 21985,4874 22025,4822 22040,4764 22037,4700 22035,4660 22038,4623 22054,4586 22061,4571 22067,4555 22074,4539 22071,4540 22070,4541 22070,4541 22028,4606 22002,4675 21996,4751 21991,4803 21975,4850 21940,4889 21936,4893 21932,4897 21932,4903 Z M 23799,6560 C 23825,6548 23849,6531 23877,6525 23927,6515 23972,6492 24014,6463 24062,6431 24101,6394 24106,6332 24104,6333 24102,6334 24101,6336 24073,6374 24038,6404 23996,6426 23925,6463 23864,6514 23799,6560 Z M 22240,5598 C 22246,5599 22247,5596 22249,5593 22265,5576 22285,5565 22307,5557 22322,5551 22338,5545 22351,5534 22407,5490 22443,5433 22460,5365 22463,5352 22465,5340 22468,5327 22470,5315 22471,5303 22473,5291 22455,5333 22437,5374 22411,5412 22385,5452 22346,5479 22310,5509 22281,5534 22257,5563 22240,5598 Z M 22469,4085 C 22447,4095 22429,4111 22410,4125 22369,4157 22325,4186 22273,4196 22200,4209 22140,4249 22075,4287 22133,4286 22184,4272 22234,4248 22258,4237 22281,4220 22307,4213 22380,4194 22421,4136 22469,4085 Z M 22208,5022 C 22206,5037 22205,5052 22204,5066 22199,5117 22197,5168 22176,5215 22140,5295 22142,5379 22145,5464 22192,5320 22237,5177 22208,5022 Z M 22271,6046 C 22270,6044 22268,6041 22266,6038 22236,5998 22199,5964 22166,5927 22139,5897 22106,5873 22068,5856 22037,5842 22006,5828 21977,5810 21964,5803 21951,5795 21938,5787 21938,5793 21942,5796 21944,5799 21968,5825 21992,5852 22021,5872 22105,5929 22183,5996 22271,6046 Z M 21635,4975 C 21653,5009 21671,5043 21694,5074 21735,5129 21772,5185 21801,5247 21822,5290 21857,5324 21892,5357 21889,5347 21885,5337 21880,5328 21859,5288 21834,5250 21819,5206 21807,5172 21789,5142 21768,5112 21730,5060 21689,5011 21635,4975 Z M 21933,5810 C 21965,5851 21992,5896 22016,5942 22021,5951 22028,5958 22036,5963 22100,6001 22164,6040 22237,6062 22248,6065 22258,6069 22274,6068 22158,5982 22035,5910 21933,5810 Z M 22562,3588 C 22529,3602 22498,3620 22464,3631 22393,3652 22341,3697 22297,3754 22264,3796 22244,3845 22234,3899 22237,3897 22238,3897 22238,3896 22298,3800 22377,3722 22469,3658 22501,3636 22534,3615 22562,3588 Z M 22449,4080 C 22370,4103 22291,4125 22215,4157 22179,4172 22142,4187 22109,4211 22088,4226 22074,4247 22062,4273 22075,4271 22083,4267 22090,4263 22151,4224 22215,4193 22287,4178 22316,4172 22343,4157 22367,4140 22395,4120 22422,4100 22449,4080 Z M 21716,3966 C 21719,3987 21722,4003 21727,4018 21743,4068 21754,4117 21756,4169 21757,4217 21758,4265 21771,4312 21783,4358 21789,4404 21787,4451 21786,4466 21788,4481 21792,4501 21803,4465 21808,4431 21807,4398 21806,4335 21800,4273 21800,4211 21799,4121 21764,4043 21716,3966 Z M 21621,4982 C 21626,5002 21632,5022 21637,5042 21663,5147 21715,5238 21794,5312 21817,5334 21844,5351 21875,5362 21857,5341 21839,5322 21822,5302 21794,5268 21779,5228 21758,5191 21717,5118 21658,5057 21621,4982 Z M 22968,5984 C 22976,5987 22984,5991 22992,5993 23025,6005 23059,6016 23093,6027 23154,6047 23208,6078 23255,6122 23292,6158 23330,6194 23376,6219 23388,6226 23400,6234 23418,6237 23407,6227 23398,6220 23391,6212 23360,6175 23328,6139 23292,6107 23236,6058 23175,6018 23103,5996 23059,5983 23015,5975 22968,5984 Z M 22339,6137 C 22334,6138 22329,6139 22324,6141 22288,6153 22251,6164 22213,6172 22163,6184 22111,6193 22065,6219 22017,6246 21965,6264 21911,6276 21907,6277 21903,6278 21899,6280 21896,6281 21891,6280 21890,6284 21969,6279 22050,6278 22127,6253 22206,6229 22271,6181 22339,6137 Z M 23001,6278 C 23002,6274 23003,6273 23003,6273 22983,6225 22969,6176 22946,6129 22919,6075 22888,6025 22838,5988 22801,5960 22763,5934 22734,5896 22735,5901 22736,5905 22737,5908 22755,5949 22777,5987 22805,6020 22831,6051 22859,6079 22885,6108 22916,6144 22935,6188 22963,6226 22975,6243 22988,6260 23001,6278 Z M 21908,4904 C 21950,4861 21977,4816 21982,4758 21988,4675 22015,4599 22061,4529 22063,4527 22065,4524 22067,4521 22041,4543 22015,4565 21999,4597 21987,4622 21971,4645 21955,4667 21938,4690 21927,4716 21922,4743 21916,4773 21911,4802 21907,4832 21904,4855 21904,4877 21908,4904 Z M 23402,5978 C 23404,5980 23405,5982 23406,5983 23472,6056 23543,6124 23626,6176 23656,6195 23682,6217 23703,6244 23712,6255 23722,6266 23735,6280 23696,6159 23530,6009 23402,5978 Z M 23014,6318 C 23015,6313 23011,6311 23008,6308 22975,6267 22943,6224 22917,6178 22897,6144 22873,6112 22845,6084 22800,6039 22761,5990 22734,5932 22733,5931 22731,5928 22728,5930 22771,6098 22861,6232 23014,6318 Z M 22236,3927 C 22258,3920 22275,3912 22289,3898 22310,3877 22332,3858 22359,3845 22398,3825 22427,3794 22451,3758 22479,3715 22505,3671 22538,3631 22539,3630 22542,3628 22540,3627 22418,3704 22310,3796 22236,3927 Z M 21775,4494 C 21770,4446 21777,4398 21766,4351 21752,4293 21742,4235 21743,4175 21743,4148 21741,4120 21734,4094 21724,4057 21714,4021 21705,3985 21700,4004 21697,4023 21697,4041 21698,4109 21710,4177 21703,4246 21703,4247 21704,4249 21704,4250 21712,4309 21723,4366 21741,4422 21750,4447 21759,4472 21775,4494 Z M 22994,6010 C 23069,6061 23137,6120 23210,6174 23271,6220 23338,6251 23421,6255 23355,6229 23305,6188 23258,6143 23236,6122 23214,6103 23190,6087 23130,6047 23061,6031 22994,6010 Z M 22218,5605 C 22258,5538 22270,5523 22334,5473 22399,5423 22435,5354 22459,5277 22434,5315 22399,5340 22360,5362 22346,5370 22332,5380 22319,5389 22242,5441 22218,5518 22218,5605 Z M 22196,5009 C 22141,5072 22103,5145 22095,5232 22088,5317 22098,5398 22131,5477 22128,5447 22129,5417 22130,5387 22130,5326 22138,5266 22164,5209 22173,5190 22178,5170 22181,5149 22186,5101 22191,5053 22196,5009 Z M 22675,6470 C 22681,6472 22687,6475 22694,6477 22746,6493 22797,6508 22849,6520 22904,6533 22960,6541 23016,6539 23120,6535 23210,6488 23303,6449 23296,6449 23289,6450 23283,6451 23222,6455 23162,6461 23102,6469 23042,6478 22982,6486 22921,6489 22839,6492 22756,6492 22675,6470 Z M 23273,6438 C 23217,6434 23162,6424 23107,6417 23018,6405 22929,6399 22840,6419 22787,6431 22734,6442 22680,6453 22684,6459 22690,6458 22695,6459 22790,6482 22884,6481 22979,6471 23050,6463 23121,6454 23191,6446 23219,6443 23246,6440 23273,6438 Z M 22601,6164 C 22561,6109 22534,6048 22512,5985 22499,5947 22504,5906 22495,5867 22485,5819 22484,5770 22472,5722 22471,5718 22469,5713 22474,5711 22480,5708 22483,5713 22487,5716 22545,5771 22586,5835 22596,5916 22603,5962 22612,6009 22620,6055 22626,6094 22644,6128 22661,6162 22664,6169 22668,6175 22669,6181 22673,6207 22691,6217 22712,6228 22811,6277 22913,6315 23018,6346 23019,6346 23020,6345 23023,6345 22992,6322 22963,6300 22933,6277 22878,6234 22825,6188 22793,6125 22754,6046 22715,5966 22702,5877 22701,5867 22700,5858 22702,5848 22703,5845 22704,5841 22708,5840 22713,5839 22715,5842 22718,5845 22718,5846 22719,5847 22719,5847 22748,5902 22793,5939 22841,5974 22905,6020 22942,6086 22973,6157 22994,6203 23006,6254 23031,6299 23032,6303 23034,6306 23036,6309 23052,6344 23077,6365 23117,6373 23199,6389 23281,6408 23363,6418 23415,6425 23467,6423 23518,6417 23597,6408 23676,6399 23753,6382 23812,6369 23870,6351 23926,6328 23901,6330 23877,6334 23852,6336 23756,6344 23662,6335 23571,6306 23512,6287 23454,6271 23392,6266 23311,6259 23244,6219 23182,6170 23103,6108 23026,6045 22941,5991 22936,5988 22929,5986 22930,5979 22931,5971 22940,5972 22946,5971 23028,5959 23106,5976 23180,6013 23260,6054 23326,6113 23382,6182 23419,6226 23466,6253 23517,6274 23587,6303 23661,6318 23741,6324 23711,6310 23685,6296 23661,6279 23598,6236 23544,6182 23492,6126 23440,6071 23392,6011 23349,5948 23345,5942 23337,5936 23344,5929 23350,5923 23360,5926 23365,5931 23403,5969 23455,5982 23500,6006 23604,6062 23682,6143 23736,6249 23747,6271 23761,6293 23777,6314 23782,6320 23788,6325 23797,6325 23886,6324 23974,6310 24056,6274 24129,6242 24201,6207 24270,6167 24342,6125 24407,6075 24457,6008 24460,6003 24464,5994 24472,6000 24478,6005 24471,6011 24468,6015 24421,6080 24358,6127 24292,6168 24254,6191 24215,6212 24175,6232 24165,6238 24158,6245 24154,6255 24139,6297 24120,6338 24107,6381 24097,6418 24068,6442 24038,6463 23992,6496 23944,6525 23887,6536 23853,6543 23824,6564 23793,6580 23771,6592 23747,6600 23721,6602 23716,6602 23708,6604 23706,6597 23703,6590 23709,6585 23714,6582 23724,6574 23734,6567 23745,6562 23767,6550 23784,6534 23801,6516 23864,6451 23931,6390 24010,6342 24038,6324 24069,6311 24094,6289 24102,6281 24110,6273 24117,6262 24086,6275 24056,6289 24026,6302 23920,6349 23811,6389 23695,6407 23596,6422 23496,6439 23395,6435 23376,6434 23359,6443 23341,6450 23278,6473 23216,6502 23152,6525 23059,6559 22965,6558 22869,6537 22806,6524 22743,6507 22681,6486 22665,6481 22651,6472 22639,6460 22632,6452 22631,6445 22644,6443 22726,6435 22806,6410 22888,6397 22952,6388 23016,6393 23079,6400 23153,6408 23227,6422 23301,6423 23262,6415 23222,6408 23182,6400 23043,6370 22907,6330 22776,6272 22720,6248 22667,6221 22616,6189 22592,6174 22566,6176 22541,6172 22491,6164 22441,6155 22393,6137 22384,6134 22376,6135 22368,6140 22320,6164 22277,6197 22230,6223 22160,6262 22084,6284 22003,6291 21965,6294 21926,6292 21888,6300 21877,6302 21867,6305 21857,6307 21852,6308 21847,6311 21844,6306 21841,6301 21844,6296 21846,6292 21859,6273 21876,6259 21896,6247 22018,6177 22146,6125 22288,6110 22300,6109 22312,6109 22329,6109 22313,6098 22302,6087 22288,6085 22229,6079 22176,6056 22125,6029 22095,6013 22066,5996 22037,5979 22020,5970 22007,5956 21999,5939 21979,5895 21950,5856 21922,5817 21907,5796 21894,5775 21885,5752 21882,5746 21878,5740 21884,5736 21890,5732 21894,5737 21898,5740 21949,5783 22006,5814 22066,5840 22106,5857 22141,5881 22170,5913 22207,5954 22247,5991 22280,6035 22283,6039 22287,6044 22288,6049 22297,6075 22319,6088 22342,6100 22408,6135 22479,6150 22551,6160 22555,6161 22559,6160 22563,6160 22565,6156 22562,6155 22560,6154 22426,6066 22321,5948 22227,5819 22158,5724 22091,5627 22035,5523 L 22034,5522 C 22023,5481 21990,5459 21959,5436 21952,5430 21946,5430 21938,5433 21919,5440 21898,5446 21879,5454 21800,5487 21719,5499 21635,5477 21613,5471 21589,5470 21566,5468 21559,5467 21553,5466 21547,5462 21537,5454 21537,5443 21548,5439 21631,5412 21711,5375 21801,5381 21839,5383 21877,5387 21914,5399 21911,5390 21905,5387 21899,5386 21825,5365 21773,5316 21727,5258 21670,5185 21636,5102 21615,5013 21608,4983 21599,4952 21591,4922 21589,4917 21585,4909 21593,4906 21600,4904 21602,4911 21605,4915 21625,4949 21657,4972 21685,4998 21747,5055 21799,5120 21830,5199 21844,5236 21863,5271 21883,5305 21893,5322 21903,5339 21908,5357 21912,5375 21922,5386 21935,5398 21955,5414 21973,5432 21994,5447 21997,5443 21994,5440 21992,5437 21931,5301 21892,5159 21877,5010 21869,4939 21863,4867 21869,4796 21869,4790 21868,4784 21865,4778 21855,4752 21844,4726 21834,4699 21828,4685 21817,4681 21805,4676 21772,4665 21740,4654 21707,4644 21675,4633 21643,4620 21613,4604 21587,4591 21567,4571 21552,4547 21525,4507 21493,4472 21450,4449 21445,4446 21440,4444 21442,4437 21444,4430 21450,4429 21456,4429 21479,4428 21502,4432 21525,4437 21579,4447 21628,4469 21670,4507 21707,4539 21753,4561 21785,4600 21791,4608 21798,4615 21806,4622 21793,4584 21790,4542 21767,4507 21726,4447 21712,4376 21699,4306 21691,4265 21687,4224 21692,4182 21696,4145 21686,4109 21685,4073 21683,4026 21687,3980 21696,3934 21697,3930 21698,3925 21703,3924 21708,3923 21711,3928 21713,3931 21756,4010 21805,4085 21811,4178 21812,4191 21814,4204 21814,4216 21814,4296 21825,4376 21815,4455 21813,4473 21809,4491 21804,4509 21798,4525 21799,4540 21803,4557 21820,4623 21840,4686 21868,4750 21874,4728 21873,4707 21875,4687 21883,4574 21914,4468 21959,4365 21976,4327 21994,4290 22013,4254 22018,4245 22018,4238 22013,4229 21992,4195 21983,4158 21980,4119 21977,4058 21974,3995 21997,3937 22020,3877 22036,3816 22061,3757 22066,3746 22069,3734 22071,3722 22072,3717 22072,3712 22078,3712 22083,3712 22085,3716 22086,3720 22112,3787 22122,3855 22100,3926 22086,3971 22073,4017 22057,4062 22041,4106 22039,4152 22041,4202 22049,4190 22055,4180 22061,4170 22105,4097 22152,4026 22201,3957 22211,3943 22216,3929 22219,3912 22241,3775 22315,3677 22444,3625 22494,3605 22542,3581 22589,3556 22595,3552 22603,3544 22610,3553 22616,3560 22612,3569 22607,3576 22602,3582 22597,3588 22592,3593 22553,3631 22520,3675 22490,3721 22475,3746 22459,3771 22441,3794 22423,3816 22403,3835 22378,3849 22351,3863 22325,3880 22303,3903 22286,3922 22263,3934 22238,3940 22230,3942 22224,3946 22219,3953 22142,4065 22067,4178 22005,4299 22001,4305 21997,4311 21997,4321 22018,4301 22043,4289 22054,4261 22073,4214 22113,4189 22157,4169 22253,4123 22354,4093 22456,4062 22472,4057 22487,4052 22503,4047 22509,4046 22515,4043 22519,4050 22523,4057 22519,4062 22514,4067 22504,4076 22493,4085 22483,4094 22455,4118 22432,4146 22406,4172 22388,4190 22368,4204 22345,4212 22300,4227 22260,4253 22216,4270 22173,4288 22129,4302 22082,4298 22048,4294 22027,4310 22006,4332 21982,4356 21965,4384 21952,4415 21913,4510 21893,4610 21886,4712 21881,4788 21880,4864 21884,4940 21884,4948 21885,4957 21886,4966 21895,4944 21898,4921 21894,4900 21886,4850 21898,4801 21906,4752 21913,4711 21930,4676 21955,4644 21962,4636 21968,4628 21972,4618 22000,4554 22054,4514 22101,4467 22107,4461 22118,4450 22127,4458 22137,4467 22127,4479 22121,4488 22093,4524 22076,4566 22060,4609 22050,4634 22049,4660 22050,4686 22053,4735 22048,4783 22028,4829 22017,4853 22003,4874 21986,4893 21971,4910 21950,4917 21929,4918 21916,4920 21911,4925 21907,4938 21888,5006 21896,5073 21910,5141 21949,5334 22031,5509 22140,5672 22165,5709 22190,5746 22218,5780 22216,5775 22214,5769 22211,5764 22177,5692 22151,5617 22138,5539 22134,5518 22124,5499 22116,5480 22072,5364 22068,5246 22105,5128 22114,5100 22128,5075 22147,5053 22165,5031 22180,5009 22189,4983 22193,4974 22197,4966 22201,4958 22207,4949 22213,4949 22218,4959 22221,4966 22223,4974 22223,4982 22223,5030 22230,5077 22232,5125 22234,5165 22226,5205 22219,5244 22206,5311 22191,5377 22166,5441 22143,5502 22150,5564 22171,5624 22180,5648 22188,5672 22197,5696 22203,5667 22205,5639 22205,5609 22201,5503 22241,5417 22335,5361 22344,5356 22353,5350 22363,5345 22416,5317 22451,5273 22472,5217 22474,5210 22477,5203 22482,5198 22486,5195 22490,5193 22494,5195 22498,5197 22499,5201 22498,5205 22486,5286 22485,5370 22444,5444 22411,5503 22369,5551 22303,5573 22276,5581 22260,5603 22242,5621 22203,5662 22204,5710 22223,5756 22264,5853 22327,5935 22403,6009 22461,6066 22524,6116 22592,6160 22595,6161 22598,6163 22601,6164 Z"/>
   </g>
  </g>
  <g class="com.sun.star.drawing.ClosedBezierShape">
   <g id="id4">
    <rect class="BoundingBox" stroke="none" fill="none" x="22705" y="3353" width="2244" height="2545"/>
    <path fill="rgb(255,255,255)" stroke="none" d="M 24550,5897 C 25066,5300 25046,4399 24494,3834 24228,3556 23854,3389 23471,3373 23207,3360 22942,3418 22705,3536 22938,3409 23206,3346 23471,3354 24187,3374 24795,3900 24922,4602 25008,5065 24870,5552 24550,5897 Z"/>
   </g>
  </g>
  <g class="com.sun.star.drawing.ClosedBezierShape">
   <g id="id5">
    <rect class="BoundingBox" stroke="none" fill="none" x="23143" y="4148" width="557" height="1000"/>
    <path fill="rgb(255,255,255)" stroke="none" d="M 23694,4295 C 23686,4289 23681,4292 23676,4299 23648,4337 23624,4377 23602,4418 23531,4550 23484,4690 23441,4831 23426,4880 23412,4930 23398,4979 23397,4979 23397,4979 23396,4979 23396,4976 23397,4973 23397,4970 23409,4890 23419,4809 23421,4728 23422,4633 23404,4540 23394,4446 23384,4353 23393,4261 23443,4183 23464,4150 23454,4145 23442,4151 23428,4158 23409,4184 23407,4188 23379,4224 23358,4264 23339,4306 23296,4404 23270,4508 23244,4611 23215,4725 23191,4840 23145,4949 23144,4952 23143,4954 23143,4956 23142,4965 23144,4976 23152,4978 23160,4980 23160,4969 23163,4964 23205,4867 23228,4764 23254,4662 23281,4555 23306,4445 23348,4342 23350,4338 23350,4333 23356,4330 23348,4361 23342,4391 23339,4421 23332,4491 23343,4559 23352,4627 23363,4708 23371,4789 23375,4871 23378,4955 23367,5038 23352,5121 23351,5130 23346,5143 23359,5146 23372,5149 23373,5135 23376,5127 23386,5095 23397,5062 23407,5030 23442,4910 23474,4789 23517,4671 23562,4545 23615,4421 23694,4312 23698,4306 23702,4301 23694,4295 Z"/>
   </g>
  </g>
  <g class="com.sun.star.drawing.ClosedBezierShape">
   <g id="id6">
    <rect class="BoundingBox" stroke="none" fill="none" x="22982" y="4241" width="734" height="1006"/>
    <path fill="rgb(255,255,255)" stroke="none" d="M 23526,5245 C 23422,5244 23328,5225 23243,5177 23099,5097 23015,4974 22989,4811 22969,4681 22993,4560 23066,4450 23133,4348 23228,4282 23343,4245 23348,4243 23354,4239 23358,4244 23362,4249 23356,4254 23354,4258 23351,4267 23345,4273 23336,4278 23195,4348 23113,4462 23089,4617 23067,4758 23087,4894 23164,5016 23234,5128 23336,5191 23465,5214 23540,5226 23613,5222 23685,5200 23689,5199 23693,5198 23697,5197 23706,5195 23711,5201 23714,5208 23717,5216 23708,5217 23703,5219 23663,5231 23623,5237 23581,5241 23561,5243 23540,5246 23526,5245 Z"/>
   </g>
  </g>
  <g class="com.sun.star.drawing.ClosedBezierShape">
   <g id="id7">
    <rect class="BoundingBox" stroke="none" fill="none" x="23585" y="4141" width="513" height="1177"/>
    <path fill="rgb(255,255,255)" stroke="none" d="M 23763,4234 C 23756,4238 23753,4241 23749,4242 23743,4243 23736,4243 23733,4237 23730,4232 23735,4228 23739,4225 23767,4195 23798,4169 23832,4147 23839,4143 23847,4137 23854,4144 23862,4153 23853,4160 23848,4166 23780,4236 23734,4318 23702,4410 23677,4486 23662,4565 23655,4645 23645,4760 23648,4875 23672,4989 23688,5058 23709,5125 23750,5185 23777,5227 23810,5266 23859,5282 23965,5318 24047,5260 24068,5154 24085,5065 24062,4985 23999,4919 23985,4904 23969,4892 23952,4882 23945,4877 23937,4873 23942,4863 23948,4854 23956,4859 23963,4863 24016,4894 24053,4940 24075,4997 24103,5070 24105,5143 24070,5215 24027,5306 23930,5340 23838,5299 23788,5276 23748,5240 23716,5197 23647,5105 23611,4999 23595,4888 23563,4677 23607,4482 23717,4301 23731,4279 23746,4258 23763,4234 Z"/>
   </g>
  </g>
  <g class="com.sun.star.drawing.ClosedBezierShape">
   <g id="id8">
    <rect class="BoundingBox" stroke="none" fill="none" x="22622" y="4609" width="476" height="575"/>
    <path fill="rgb(255,255,255)" stroke="none" d="M 22907,4609 C 22923,4609 22940,4609 22956,4612 22964,4614 22973,4615 22972,4626 22970,4637 22961,4635 22953,4634 22908,4630 22863,4629 22819,4643 22727,4674 22673,4740 22652,4833 22633,4924 22647,5008 22708,5081 22762,5146 22835,5166 22917,5159 22981,5152 23034,5122 23075,5072 23079,5067 23083,5059 23092,5066 23100,5072 23098,5079 23092,5086 23052,5135 23001,5168 22937,5178 22855,5191 22779,5176 22715,5120 22666,5077 22639,5021 22628,4957 22613,4873 22628,4794 22675,4723 22726,4648 22807,4609 22907,4609 Z"/>
   </g>
  </g>
  <g class="com.sun.star.drawing.ClosedBezierShape">
   <g id="id9">
    <rect class="BoundingBox" stroke="none" fill="none" x="23749" y="4184" width="123" height="343"/>
    <path fill="rgb(255,255,255)" stroke="none" d="M 23870,4356 C 23870,4406 23870,4457 23870,4507 23870,4514 23874,4525 23861,4525 23849,4525 23851,4515 23850,4509 23846,4441 23811,4388 23766,4342 23747,4322 23746,4323 23759,4300 23762,4294 23765,4288 23768,4282 23775,4266 23785,4259 23805,4260 23831,4262 23844,4248 23849,4219 23850,4211 23850,4202 23851,4194 23851,4188 23853,4184 23859,4184 23868,4183 23869,4189 23870,4194 23870,4205 23870,4216 23870,4227 23870,4271 23870,4313 23870,4356 Z"/>
   </g>
  </g>
  <g class="com.sun.star.drawing.ClosedBezierShape">
   <g id="id10">
    <rect class="BoundingBox" stroke="none" fill="none" x="23427" y="4219" width="314" height="72"/>
    <path fill="rgb(255,255,255)" stroke="none" d="M 23513,4219 C 23586,4220 23657,4232 23729,4247 23740,4249 23742,4254 23735,4264 23713,4296 23714,4295 23679,4278 23609,4243 23535,4235 23459,4245 23454,4246 23449,4247 23445,4247 23439,4246 23429,4252 23428,4241 23427,4232 23432,4225 23443,4223 23466,4220 23490,4218 23513,4219 Z"/>
   </g>
  </g>
  <g class="com.sun.star.drawing.ClosedBezierShape">
   <g id="id11">
    <rect class="BoundingBox" stroke="none" fill="none" x="23754" y="5088" width="137" height="107"/>
    <path fill="rgb(255,255,255)" stroke="none" d="M 23888,5101 C 23889,5115 23886,5122 23879,5128 23846,5151 23814,5174 23778,5191 23767,5196 23760,5193 23755,5183 23750,5173 23759,5171 23765,5168 23802,5148 23837,5125 23869,5097 23873,5093 23878,5086 23885,5090 23891,5093 23888,5101 23888,5101 Z"/>
   </g>
  </g>
 </g>
</svg>